# xmcd
#
# Track frame offsets: 
#        150
#        20570
#        42463
#        65333
#        89132
#        98675
#        117184
#        130197
#        153387
#        175138
#        195306
#
# Disc length: 2845 seconds
#
# Revision: 1
# Processed by: cddbd v1.5.2PL0 Copyright (c) Steve Scherf et al.
# Submitted via: ExactAudioCopyFreeDBPlugin 1.0
#
DISCID=8e0b1b0b
DTITLE=Various Artist - In The Secret Place (A Parable Praise and Worsh
DTITLE=ip Collection) (2002)
DYEAR=2002
DGENRE=Praise and Worship
TTITLE0=Ian White - Psalm 116 - Foor As Long As I Live
TTITLE1=Rob Mathes - Psalm 124 - If The Lord Had Not Been On Our Side
TTITLE2=Lincoln Brewster - Psalm 91
TTITLE3=Ian White - Psalm 1 - Watch Over Me
TTITLE4=Bob Fitts - Come Thou Fount Of Every Blessing
TTITLE5=Diana Beech - And Can It Be
TTITLE6=David Hampton - Be Thou My Vision
TTITLE7=Christiana Hamilton - Grace Alone
TTITLE8=Lenny LeBlanc - Above All
TTITLE9=Robin Mark - Lord Have Mercy
TTITLE10=Rochelle Hickman - O Lord Of Hosts, How Lovely
EXTD=
EXTT0=
EXTT1=
EXTT2=
EXTT3=
EXTT4=
EXTT5=
EXTT6=
EXTT7=
EXTT8=
EXTT9=
EXTT10=
PLAYORDER=
